<?xml version="1.0" encoding="UTF-8"?>
<svg version="1.1" xmlns="http://www.w3.org/2000/svg" width="704" height="153">
<path d="M0 0 C232.32 0 464.64 0 704 0 C704 50.49 704 100.98 704 153 C471.68 153 239.36 153 0 153 C0 102.51 0 52.02 0 0 Z " fill="#F5F6F7" transform="translate(0,0)"/>
<path d="M0 0 C7.49516732 1.79584708 13.57046302 9.61722416 17.94140625 15.703125 C25 27.23746867 25 27.23746867 25 33 C27.97 32.34 30.94 31.68 34 31 C39.2010088 36.91023727 39.30391285 43.77506944 39.1875 51.25 C39.1865332 52.45269531 39.1865332 52.45269531 39.18554688 53.6796875 C39.16036255 57.02640473 39.06478118 59.80565645 38 63 C38.92941406 62.97679687 39.85882813 62.95359375 40.81640625 62.9296875 C53.09490334 62.75043937 53.09490334 62.75043937 59 65 C59.81086363 75.33851127 56.39031238 85.83676558 50 94 C47.5625 96.6875 47.5625 96.6875 45 99 C44.071875 99.86625 43.14375 100.7325 42.1875 101.625 C33.86318404 107.8274315 24.07954353 108.42771124 14 107 C10.17959984 105.70707962 7.43120245 104.17854124 4 102 C3.67 106.29 3.34 110.58 3 115 C2.01 115.33 1.02 115.66 0 116 C0 111.05 0 106.1 0 101 C-1.629375 101.99 -3.25875 102.98 -4.9375 104 C-13.75839052 108.3739953 -23.08755233 108.83558555 -32.47265625 105.921875 C-44.19624389 100.52694971 -50.51877958 92.26453821 -54.96875 80.421875 C-56.72873856 75.10931695 -57.31014153 70.58254749 -57 65 C-52.29538677 63.13867327 -48.1242304 62.7490504 -43.125 62.875 C-42.09246094 62.88853516 -42.09246094 62.88853516 -41.0390625 62.90234375 C-39.35922162 62.92567487 -37.67956254 62.96153674 -36 63 C-36.33 62.01 -36.66 61.02 -37 60 C-37.6346038 50.04160186 -37.71899548 39.57849321 -32 31 C-29.03 31.66 -26.06 32.32 -23 33 C-22.649375 31.576875 -22.29875 30.15375 -21.9375 28.6875 C-18.37609174 16.99750716 -10.14104628 6.76069752 0 0 Z " fill="#212121" transform="translate(76,24)"/>
<path d="M0 0 C8.96125619 0.57199508 16.99561471 5.39230327 23 12 C28.45589427 19.59299571 31.3869035 26.52086416 31 36 C26.52694313 32.69382753 24.111263 30.66744132 23 25 C22.86369958 22.30806663 22.90691724 19.69939994 23 17 C22.01 17 21.02 17 20 17 C20 20.3 20 23.6 20 27 C13.78024677 25.30370366 9.52909392 20.42545931 6.1875 15.125 C5.795625 14.42375 5.40375 13.7225 5 13 C4.34 12.67 3.68 12.34 3 12 C7.04191381 21.42492344 11.4152625 25.96686204 20.1875 31.0625 C23.98711408 33.27077343 26.61092968 35.21730533 29 39 C29.4125 39.61875 29.825 40.2375 30.25 40.875 C31.32985792 43.93459743 31.12357258 46.78711296 31 50 C30.154375 49.175 29.30875 48.35 28.4375 47.5 C23.65622753 43.36670285 18.11134648 40.6982897 12.5234375 37.83203125 C9.60699956 36.31561285 6.79370969 34.72867477 4 33 C8.2707228 39.05019064 12.13914269 41.29892438 19.09765625 43.76171875 C24.17502589 45.92797201 27.71434078 48.94749016 30 54 C30.1875 57.3125 30.1875 57.3125 30 60 C21.5448291 59.34960224 13.67017572 54.12850402 8 48 C-0.13709977 38.02216095 -3.52377697 25.76706373 -3 13 C-2.59765625 10.390625 -2.59765625 10.390625 -2.0625 8.25 C-1.88847656 7.53328125 -1.71445312 6.8165625 -1.53515625 6.078125 C-1.35855469 5.39234375 -1.18195312 4.7065625 -1 4 C-0.81308594 3.25234375 -0.62617187 2.5046875 -0.43359375 1.734375 C-0.29050781 1.16203125 -0.14742187 0.5896875 0 0 Z " fill="#EFF0F1" transform="translate(45,59)"/>
<path d="M0 0 C3.86435356 11.77929458 3.31769514 24.42538423 -1.38671875 35.875 C-7.12284824 46.9861467 -15.34842574 53.93763581 -26.8984375 58.3359375 C-29 59 -29 59 -31 59 C-30.87995315 53.23775112 -29.22570176 50.06089753 -25.30078125 45.8515625 C-21.83011195 43.05852812 -18.04694312 41.65789708 -13.8671875 40.203125 C-10.69919837 38.87377806 -8.50834021 37.33873714 -6 35 C-5.67 34.01 -5.34 33.02 -5 32 C-7.59194416 33.52467303 -10.10625822 35.07515825 -12.5625 36.8125 C-16.5499174 39.52644902 -20.94479837 41.47319369 -25.29296875 43.53515625 C-27.69277253 44.83375137 -29.23480135 45.95576652 -31 48 C-31.60820873 43.81856496 -31.81902264 41.33147123 -29.5703125 37.67578125 C-25.39702606 32.73990633 -21.00665912 29.64206376 -15.3984375 26.52734375 C-9.57301672 22.81767026 -5.6690695 17.28016353 -3 11 C-6.89025232 12.29675077 -7.64524036 14.02240529 -9.9375 17.375 C-14.36461028 23.84079884 -14.36461028 23.84079884 -18 26 C-18.99 26 -19.98 26 -21 26 C-21 22.7 -21 19.4 -21 16 C-21.99 16 -22.98 16 -24 16 C-23.95359375 16.65226562 -23.9071875 17.30453125 -23.859375 17.9765625 C-23.61493999 23.89538162 -23.93021552 27.34881773 -28 32 C-28.99 32.66 -29.98 33.32 -31 34 C-31.92186723 24.78132774 -28.77039012 18.00205089 -23.2421875 10.66796875 C-17.65130542 4.5507484 -8.59105381 -2.62286286 0 0 Z " fill="#F0F1F1" transform="translate(110,60)"/>
<path d="M0 0 C8.39679043 2.30342576 13.27139053 9.92601228 17.4375 17.0625 C17.77950439 17.63967773 18.12150879 18.21685547 18.47387695 18.81152344 C20.71983711 22.84522445 21.58600958 26.42278198 22 31 C21.27554688 31.4846875 20.55109375 31.969375 19.8046875 32.46875 C14.32192088 36.27013486 9.85548433 39.7731361 6.12109375 45.3359375 C5 47 5 47 3 49 C2.15545526 39.1282104 4.46525544 32.77668184 10.3125 24.875 C10.869375 24.25625 11.42625 23.6375 12 23 C8.28127309 25.0659594 6.11257569 26.88742431 3 30 C3 24.39 3 18.78 3 13 C2.01 13 1.02 13 0 13 C0 18.94 0 24.88 0 31 C-5 26 -5 26 -6 23 C-6.99 23 -7.98 23 -9 23 C-8.5875 23.680625 -8.175 24.36125 -7.75 25.0625 C-2.55788536 33.77783529 0.36306821 39.61221502 0 50 C-2 49 -2 49 -3.5625 45.9375 C-7.19898061 39.30707483 -13.5421802 34.69018274 -20 31 C-18.05526838 18.94266397 -11.5695748 10.4879598 -3 2 C-2.01 1.34 -1.02 0.68 0 0 Z " fill="#EEEFF0" transform="translate(76,28)"/>
<path d="M0 0 C0.74958984 0.00451172 1.49917969 0.00902344 2.27148438 0.01367188 C4.11852383 0.02543646 5.96552213 0.04337135 7.8125 0.0625 C8.81734204 2.01835325 9.81623805 3.97726237 10.8125 5.9375 C11.369375 7.02804688 11.92625 8.11859375 12.5 9.2421875 C13.8125 12.0625 13.8125 12.0625 13.8125 14.0625 C10.59725695 12.65405282 8.49066132 10.95905214 6.0625 8.4375 C5.14210938 7.49003906 5.14210938 7.49003906 4.203125 6.5234375 C3.51476562 5.80027344 3.51476562 5.80027344 2.8125 5.0625 C2.8125 9.06154969 4.53836967 10.86450422 6.8125 14.0625 C5.843125 14.18625 4.87375 14.31 3.875 14.4375 C2.864375 14.64375 1.85375 14.85 0.8125 15.0625 C0.4825 15.7225 0.1525 16.3825 -0.1875 17.0625 C1.09125 17.000625 2.37 16.93875 3.6875 16.875 C10.14845603 16.88520688 16.3990223 18.05126858 21.4375 22.25 C22.118125 23.1471875 22.118125 23.1471875 22.8125 24.0625 C19.3358662 26.20586161 16.60020805 26.27527626 12.5625 26.1875 C11.48484375 26.16945313 10.4071875 26.15140625 9.296875 26.1328125 C8.47703125 26.10960938 7.6571875 26.08640625 6.8125 26.0625 C6.8125 26.7225 6.8125 27.3825 6.8125 28.0625 C8.70801022 28.11691656 10.6039792 28.15548035 12.5 28.1875 C13.55574219 28.21070312 14.61148438 28.23390625 15.69921875 28.2578125 C18.79715951 28.23241662 18.79715951 28.23241662 21.39453125 26.9921875 C25.32908214 25.47938764 27.92562922 26.69745872 31.70703125 28.25390625 C32.66996094 28.70636719 33.63289063 29.15882812 34.625 29.625 C36.08873047 30.30755859 36.08873047 30.30755859 37.58203125 31.00390625 C38.31808594 31.35324219 39.05414063 31.70257813 39.8125 32.0625 C35.91260398 36.3957178 32.95323716 37.86664532 27.140625 38.3984375 C15.75381657 38.6528059 8.0526333 36.9034386 -0.40625 28.96484375 C-6.67947204 22.26515267 -11.00394585 12.92263607 -11.29296875 3.6953125 C-11.25816406 2.82648438 -11.22335938 1.95765625 -11.1875 1.0625 C-7.42449626 -0.19183458 -3.91539091 -0.04445422 0 0 Z " fill="#EEEFEF" transform="translate(33.1875,89.9375)"/>
<path d="M0 0 C13.125 -0.13392857 13.125 -0.13392857 19 1 C20.00145246 9.61249114 16.12083001 18.39529108 11.25 25.375 C6.19792556 31.50502349 0.0080047 36.79879929 -8 38 C-15.65884105 38.53090811 -22.06765144 38.46617428 -29 35 C-30.03128075 34.03229135 -31.0400424 33.03849959 -32 32 C-31.39671875 31.73445313 -30.7934375 31.46890625 -30.171875 31.1953125 C-29.37265625 30.84210938 -28.5734375 30.48890625 -27.75 30.125 C-26.96109375 29.77695313 -26.1721875 29.42890625 -25.359375 29.0703125 C-23.8379448 28.38012728 -22.3370303 27.64180209 -20.8671875 26.84765625 C-18.27563483 25.6711564 -16.68039687 26.22409564 -14 27 C-13.34 27.33 -12.68 27.66 -12 28 C-9.95944995 28.07065617 -7.91665743 28.08421976 -5.875 28.0625 C-4.77929688 28.05347656 -3.68359375 28.04445313 -2.5546875 28.03515625 C-1.71164063 28.02355469 -0.86859375 28.01195313 0 28 C-0.33 27.34 -0.66 26.68 -1 26 C-2.01320313 26.05220703 -2.01320313 26.05220703 -3.046875 26.10546875 C-3.93890625 26.13253906 -4.8309375 26.15960938 -5.75 26.1875 C-7.07257813 26.23970703 -7.07257813 26.23970703 -8.421875 26.29296875 C-11.44671583 25.94923684 -12.75583602 24.99772541 -15 23 C-13.58671871 22.18162558 -12.16921654 21.37053781 -10.75 20.5625 C-9.56664062 19.88380859 -9.56664062 19.88380859 -8.359375 19.19140625 C-4.23456762 17.10851511 -0.85044544 16.88273279 3.75 16.9375 C4.73484375 16.94652344 5.7196875 16.95554687 6.734375 16.96484375 C7.85585937 16.98224609 7.85585937 16.98224609 9 17 C8.505 16.01 8.505 16.01 8 15 C5.67843403 14.59270772 3.3431213 14.25561323 1 14 C1.34933594 13.52949219 1.69867188 13.05898437 2.05859375 12.57421875 C2.74115234 11.64029297 2.74115234 11.64029297 3.4375 10.6875 C3.88996094 10.07261719 4.34242187 9.45773438 4.80859375 8.82421875 C6.17336308 6.90322899 6.17336308 6.90322899 7 4 C5.948125 5.0828125 5.948125 5.0828125 4.875 6.1875 C2.07229255 8.99823813 -0.92262792 11.49516226 -4 14 C-4.66 13.67 -5.32 13.34 -6 13 C-4.02 8.71 -2.04 4.42 0 0 Z " fill="#EFF0F1" transform="translate(113,90)"/>
<path d="M0 0 C3.17155686 2.60002039 4.06754059 5.42745314 5.36010742 9.25976562 C5.57512405 9.88936691 5.79014069 10.5189682 6.01167297 11.16764832 C6.71833887 13.2443385 7.41210778 15.32508349 8.10546875 17.40625 C8.59377978 18.85231001 9.08274689 20.29814863 9.57234192 21.74377441 C10.5956727 24.77152668 11.61298418 27.80121151 12.62573242 30.83251953 C13.9246072 34.7195731 15.23529135 38.60251226 16.55010509 42.48419952 C17.56002768 45.46834755 18.56521415 48.45407278 19.56881142 51.44035339 C20.05054698 52.87287043 20.53340046 54.30501202 21.01738548 55.73677063 C21.69220815 57.736422 22.36100199 59.73798698 23.02807617 61.74023438 C23.40985519 62.87924194 23.79163422 64.01824951 24.1849823 65.19177246 C25 68 25 68 25 71 C23.68 71 22.36 71 21 71 C19.0928447 65.47392196 17.19085224 59.94610108 15.29321289 54.41674805 C14.64970291 52.54388892 14.0048896 50.671477 13.35864258 48.79956055 C9.63688433 38.0160046 6.06811208 27.22392246 2.93432617 16.25366211 C2.33208077 14.15642552 1.69000731 12.07002192 1 10 C-0.92319566 15.60009672 -2.84364844 21.20112426 -4.76171875 26.80297852 C-5.41268407 28.70296747 -6.06435903 30.60271346 -6.71679688 32.50219727 C-11.67053448 46.92603444 -11.67053448 46.92603444 -16.20898438 61.484375 C-17.24583396 64.78181269 -18.54325 67.86798749 -20 71 C-20.99 71 -21.98 71 -23 71 C-21.44689356 63.13392597 -19.02056757 55.65643385 -16.46484375 48.06640625 C-16.02134143 46.7389632 -15.5781968 45.41140061 -15.13539124 44.08372498 C-14.21271526 41.32027002 -13.28712453 38.55781626 -12.35913086 35.79614258 C-11.16909369 32.25449449 -9.98437148 28.71109779 -8.80153561 25.16703892 C-7.88924572 22.43431905 -6.9752589 19.70216947 -6.06064034 16.9702282 C-5.62298419 15.66295589 -5.18560849 14.35558967 -4.74851799 13.04812813 C-4.13982461 11.228906 -3.52883094 9.41045401 -2.91772461 7.59204102 C-2.57067978 6.55773453 -2.22363495 5.52342804 -1.86607361 4.45777893 C-1 2 -1 2 0 0 Z " fill="#222222" transform="translate(574,48)"/>
<path d="M0 0 C9.60558417 5.98426496 15.1263942 13.00027636 18.68359375 23.671875 C19.42283545 34.34846408 19.4330313 43.57558202 12.58984375 52.359375 C5.27624269 60.74563755 -1.82448242 66.9935018 -13.2421875 68.02734375 C-20.33635816 68.26558702 -26.97170122 68.16793695 -33.31640625 64.671875 C-33.64640625 63.681875 -33.97640625 62.691875 -34.31640625 61.671875 C-33.74535156 61.81625 -33.17429687 61.960625 -32.5859375 62.109375 C-21.43802734 64.66151977 -10.66054844 65.11871237 -0.31640625 59.671875 C6.92274505 54.93374993 11.9538827 47.86100814 14.68359375 39.671875 C15.50890758 28.50984375 14.6803729 19.50571297 7.68359375 10.421875 C0.84078914 3.13569212 -8.67493841 -0.27940568 -18.50390625 -0.640625 C-27.47704846 -0.5046683 -35.89569302 3.5079903 -42.31640625 9.671875 C-43.87712362 11.61724509 -45.07377171 13.49726455 -46.31640625 15.671875 C-47.30640625 15.341875 -48.29640625 15.011875 -49.31640625 14.671875 C-45.53289053 5.72901966 -38.36150016 1.70997537 -30.0390625 -2.47265625 C-20.63912486 -5.42615172 -8.71844242 -4.30480652 0 0 Z " fill="#222222" transform="translate(364.31640625,51.328125)"/>
<path d="M0 0 C17.40130152 0 17.40130152 0 24.0703125 5.80078125 C31.26417473 13.55149056 32.57857093 19.87932511 32.3515625 30.33203125 C31.50701284 39.14349939 27.10597127 44.89402873 21 51 C24.63 57.6 28.26 64.2 32 71 C30.02 71.495 30.02 71.495 28 72 C26.3264663 69.04550087 24.66236015 66.0857982 23 63.125 C22.52304687 62.28324219 22.04609375 61.44148438 21.5546875 60.57421875 C21.10351562 59.76855469 20.65234375 58.96289062 20.1875 58.1328125 C19.76855469 57.38918457 19.34960938 56.64555664 18.91796875 55.87939453 C18 54 18 54 18 52 C16.515 52.495 16.515 52.495 15 53 C12.42734182 53.07029121 9.88358569 53.09370832 7.3125 53.0625 C6.61060547 53.05798828 5.90871094 53.05347656 5.18554688 53.04882812 C3.45699462 53.03706927 1.72848635 53.01913454 0 53 C0 52.01 0 51.02 0 50 C0.94101562 49.96261719 1.88203125 49.92523438 2.8515625 49.88671875 C4.09679687 49.82097656 5.34203125 49.75523438 6.625 49.6875 C8.46964844 49.60048828 8.46964844 49.60048828 10.3515625 49.51171875 C14.16984608 48.97617791 16.65621965 47.86351082 20 46 C21.485 45.505 21.485 45.505 23 45 C24.08742694 42.78566059 24.08742694 42.78566059 25 40 C25.53625 38.989375 26.0725 37.97875 26.625 36.9375 C29.09529938 31.1227953 28.95696971 24.42142396 27.2734375 18.40234375 C25.08542197 13.07461487 22.3800132 8.51495884 16.92578125 6.0703125 C12.21390628 4.39035708 8.05662814 3.72237545 3 3 C3 11.58 3 20.16 3 29 C2.01 29 1.02 29 0 29 C0 19.43 0 9.86 0 0 Z " fill="#212121" transform="translate(395,47)"/>
<path d="M0 0 C0.99 0 1.98 0 3 0 C3 23.76 3 47.52 3 72 C2.01 72 1.02 72 0 72 C-0.33 51.21 -0.66 30.42 -1 9 C-6.28 18.9 -11.56 28.8 -17 39 C-17.66 39 -18.32 39 -19 39 C-19.51949219 37.94941406 -20.03898438 36.89882812 -20.57421875 35.81640625 C-25.64496239 25.58407004 -25.64496239 25.58407004 -31.1875 15.6015625 C-32 14 -32 14 -32 12 C-30.16113281 12.23413086 -30.16113281 12.23413086 -28 13 C-26.62792969 14.85766602 -26.62792969 14.85766602 -25.421875 17.25390625 C-24.98359375 18.10791016 -24.5453125 18.96191406 -24.09375 19.84179688 C-23.6503125 20.73962891 -23.206875 21.63746094 -22.75 22.5625 C-22.29109375 23.46419922 -21.8321875 24.36589844 -21.359375 25.29492188 C-20.22713105 27.52402715 -19.10808712 29.75881466 -18 32 C-17.66790527 31.38592285 -17.33581055 30.7718457 -16.99365234 30.13916016 C-15.45642227 27.29984342 -13.91572955 24.46241919 -12.375 21.625 C-11.85292969 20.65949219 -11.33085937 19.69398437 -10.79296875 18.69921875 C-9.21153843 15.79016791 -7.61117261 12.89267603 -6 10 C-5.19224121 8.53578613 -5.19224121 8.53578613 -4.36816406 7.04199219 C-3.58650879 5.67155762 -3.58650879 5.67155762 -2.7890625 4.2734375 C-2.3245166 3.45020996 -1.8599707 2.62698242 -1.38134766 1.77880859 C-0.92550293 1.19180176 -0.4696582 0.60479492 0 0 Z " fill="#222222" transform="translate(210,47)"/>
<path d="M0 0 C0.99 0 1.98 0 3 0 C3 23.76 3 47.52 3 72 C2.01 72 1.02 72 0 72 C-0.33 51.21 -0.66 30.42 -1 9 C-5.95 18.57 -10.9 28.14 -16 38 C-16.99 38 -17.98 38 -19 38 C-20.9827851 34.23105858 -22.96060441 30.45953347 -24.9375 26.6875 C-25.50146484 25.61564453 -26.06542969 24.54378906 -26.64648438 23.43945312 C-27.18466797 22.41142578 -27.72285156 21.38339844 -28.27734375 20.32421875 C-28.77484131 19.37635498 -29.27233887 18.42849121 -29.78491211 17.4519043 C-31 15 -31 15 -32 12 C-31.01 11.67 -30.02 11.34 -29 11 C-25.37 17.6 -21.74 24.2 -18 31 C-14.97635085 27.22043856 -12.9451144 24.28463806 -10.80078125 20.078125 C-10.23166016 18.97082031 -9.66253906 17.86351562 -9.07617188 16.72265625 C-8.49416016 15.57667969 -7.91214844 14.43070313 -7.3125 13.25 C-6.14348629 10.96274409 -4.9729955 8.67624229 -3.80078125 6.390625 C-3.28684814 5.38032227 -2.77291504 4.37001953 -2.2434082 3.32910156 C-1 1 -1 1 0 0 Z " fill="#1E1E1E" transform="translate(300,47)"/>
<path d="M0 0 C0.99 0 1.98 0 3 0 C2.38256316 5.24821313 0.68150276 9.59958045 -1.34375 14.421875 C-9.2400091 33.83650382 -15.77845151 50.69421027 -14 72 C-14.99 72 -15.98 72 -17 72 C-20.47493258 46.16187148 -11.19483816 24.30136363 -1 1 C-0.67 0.67 -0.34 0.34 0 0 Z " fill="#1C1C1C" transform="translate(473,47)"/>
<path d="M0 0 C3.10917016 3.10917016 4.79472962 6.17817163 6.6875 10.0625 C7.00783203 10.69994141 7.32816406 11.33738281 7.65820312 11.99414062 C10 16.73265925 10 16.73265925 10 19 C8.125 18.8125 8.125 18.8125 6 18 C5.34 16.35 4.68 14.7 4 13 C3.67 32.14 3.34 51.28 3 71 C2.01 71 1.02 71 0 71 C0 47.57 0 24.14 0 0 Z " fill="#202020" transform="translate(611,47)"/>
<path d="M0 0 C0.99 0 1.98 0 3 0 C3 23.1 3 46.2 3 70 C-0.04904887 66.95095113 -1.65756072 64.27900646 -3.6875 60.5 C-4.31011719 59.3553125 -4.93273437 58.210625 -5.57421875 57.03125 C-7 54 -7 54 -7 51 C-6.01 51 -5.02 51 -4 51 C-3.01 52.98 -2.02 54.96 -1 57 C-0.67 38.19 -0.34 19.38 0 0 Z " fill="#202020" transform="translate(643,49)"/>
<path d="M0 0 C1.32 0 2.64 0 4 0 C5.4606285 2.64738916 6 3.89448334 6 7 C5.01 7 4.02 7 3 7 C3 28.45 3 49.9 3 72 C2.01 72 1.02 72 0 72 C0 48.24 0 24.48 0 0 Z " fill="#353535" transform="translate(171,47)"/>
<path d="M0 0 C0.99 0 1.98 0 3 0 C6 4.22222222 6 4.22222222 6 7 C5.01 7.495 5.01 7.495 4 8 C3.67 29.12 3.34 50.24 3 72 C2.01 72 1.02 72 0 72 C0 48.24 0 24.48 0 0 Z " fill="#282828" transform="translate(262,47)"/>
<path d="M0 0 C3.44313288 3.99372394 5.84641636 8.16112054 8.25 12.8125 C8.61351562 13.50537109 8.97703125 14.19824219 9.3515625 14.91210938 C10.23916887 16.6055689 11.12025885 18.30244124 12 20 C16.0048752 15.31737669 18.55929759 10.24299899 21.31640625 4.765625 C23 2 23 2 26 1 C25.40342891 4.92253217 24.19977313 7.84040836 22.27734375 11.30078125 C21.73916016 12.27724609 21.20097656 13.25371094 20.64648438 14.25976562 C20.08251953 15.26716797 19.51855469 16.27457031 18.9375 17.3125 C18.36966797 18.33923828 17.80183594 19.36597656 17.21679688 20.42382812 C15.81715005 22.9526018 14.41139489 25.47777036 13 28 C10.3464875 25.61296957 8.78555604 23.08924066 7.08203125 19.96484375 C6.55029297 18.99095703 6.01855469 18.01707031 5.47070312 17.01367188 C4.92349609 15.99853516 4.37628906 14.98339844 3.8125 13.9375 C3.25369141 12.91849609 2.69488281 11.89949219 2.11914062 10.84960938 C-2 3.26013049 -2 3.26013049 -2 1 C-1.34 0.67 -0.68 0.34 0 0 Z " fill="#262626" transform="translate(270,58)"/>
<path d="M0 0 C0.99 0 1.98 0 3 0 C3 17.82 3 35.64 3 54 C2.01 54 1.02 54 0 54 C0 36.18 0 18.36 0 0 Z " fill="#232323" transform="translate(511,47)"/>
<path d="M0 0 C7.92 0 15.84 0 24 0 C24 0.99 24 1.98 24 3 C16.74 3 9.48 3 2 3 C2 16.86 2 30.72 2 45 C1.34 45 0.68 45 0 45 C0 30.15 0 15.3 0 0 Z " fill="#212122" transform="translate(658,47)"/>
<path d="M0 0 C7.92 0 15.84 0 24 0 C24 0.99 24 1.98 24 3 C16.74 3 9.48 3 2 3 C2 16.86 2 30.72 2 45 C1.34 45 0.68 45 0 45 C0 30.15 0 15.3 0 0 Z " fill="#212122" transform="translate(225,47)"/>
<path d="M0 0 C1.98 0 3.96 0 6 0 C6 0.99 6 1.98 6 3 C4.68 3 3.36 3 2 3 C2 8.94 2 14.88 2 21 C9.59 21 17.18 21 25 21 C25 21.99 25 22.98 25 24 C16.75 24 8.5 24 0 24 C0 16.08 0 8.16 0 0 Z " fill="#2A2A2A" transform="translate(658,95)"/>
<path d="M0 0 C1.98 0 3.96 0 6 0 C6 0.99 6 1.98 6 3 C4.68 3 3.36 3 2 3 C2 8.94 2 14.88 2 21 C9.59 21 17.18 21 25 21 C25 21.99 25 22.98 25 24 C16.75 24 8.5 24 0 24 C0 16.08 0 8.16 0 0 Z " fill="#2A2B2B" transform="translate(225,95)"/>
<path d="M0 0 C0.99 0 1.98 0 3 0 C3 2.97 3 5.94 3 9 C11.25 9 19.5 9 28 9 C28 9.99 28 10.98 28 12 C18.76 12 9.52 12 0 12 C0 8.04 0 4.08 0 0 Z " fill="#181818" transform="translate(511,107)"/>
<path d="M0 0 C4.18000099 4.57809633 6.1875 10.91822059 6.1875 17.0625 C6.125625 18.031875 6.06375 19.00125 6 20 C1.52694313 16.69382753 -0.888737 14.66744132 -2 9 C-2.13630042 6.30806663 -2.09308276 3.69939994 -2 1 C-1.34 0.67 -0.68 0.34 0 0 Z " fill="#DFE0E1" transform="translate(70,75)"/>
<path d="M0 0 C1.32 0 2.64 0 4 0 C5.65 6.6 7.3 13.2 9 20 C7.68 20 6.36 20 5 20 C4.16468645 16.85468901 3.33208145 13.70866743 2.5 10.5625 C2.26152344 9.66466797 2.02304687 8.76683594 1.77734375 7.84179688 C1.55175781 6.98779297 1.32617188 6.13378906 1.09375 5.25390625 C0.88427734 4.46314697 0.67480469 3.6723877 0.45898438 2.85766602 C0 1 0 1 0 0 Z " fill="#272727" transform="translate(570,99)"/>
<path d="M0 0 C0.66 0 1.32 0 2 0 C3.17154293 2.28929053 4.33738074 4.58118362 5.5 6.875 C5.83386719 7.52597656 6.16773438 8.17695312 6.51171875 8.84765625 C9 13.7734375 9 13.7734375 9 16 C7.125 15.8125 7.125 15.8125 5 15 C3.75 12.4375 3.75 12.4375 3 10 C2.67 11.65 2.34 13.3 2 15 C1.67 15 1.34 15 1 15 C0.67 10.05 0.34 5.1 0 0 Z " fill="#242424" transform="translate(612,50)"/>
<path d="M0 0 C0.66 0.33 1.32 0.66 2 1 C-0.17044619 4.99819034 -2.75261673 7.83588297 -6 11 C-6.99 12.485 -6.99 12.485 -8 14 C-8.99 13.67 -9.98 13.34 -11 13 C-8.72126867 7.61390776 -4.84467788 3.22978525 0 0 Z " fill="#2C2D2D" transform="translate(326,53)"/>
<path d="M0 0 C0.66 0.33 1.32 0.66 2 1 C1.06558465 2.27310312 0.12732889 3.543388 -0.8125 4.8125 C-1.59560547 5.87404297 -1.59560547 5.87404297 -2.39453125 6.95703125 C-5.30748442 10.66378187 -7.50621973 12.42110423 -12 14 C-9.38243868 8.32861715 -5.24688193 3.43065357 0 0 Z " fill="#282929" transform="translate(93,61)"/>
<path d="M0 0 C0.99 0 1.98 0 3 0 C2.39301257 4.12751449 0.96189209 7.3321148 -1 11 C-1.99 10.67 -2.98 10.34 -4 10 C-2.8905928 6.51329166 -1.73662334 3.22515763 0 0 Z " fill="#2B2B2C" transform="translate(199,66)"/>
<path d="M0 0 C3.3 0.99 6.6 1.98 10 3 C10 3.99 10 4.98 10 6 C5.71 5.01 1.42 4.02 -3 3 C-2.01 2.67 -1.02 2.34 0 2 C0 1.34 0 0.68 0 0 Z " fill="#292929" transform="translate(353,48)"/>
<path d="M0 0 C-0.75 7.75 -0.75 7.75 -3 10 C-3.99 10.33 -4.98 10.66 -6 11 C-5.55123384 9.35153231 -5.09069512 7.70626545 -4.625 6.0625 C-4.36976563 5.14597656 -4.11453125 4.22945313 -3.8515625 3.28515625 C-3.01559138 1.04183926 -2.58567528 0 0 0 Z " fill="#292929" transform="translate(133,100)"/>
<path d="M0 0 C2.475 0.495 2.475 0.495 5 1 C5.33 2.98 5.66 4.96 6 7 C4.68 7 3.36 7 2 7 C1.34 4.69 0.68 2.38 0 0 Z " fill="#2C2D2D" transform="translate(439,47)"/>
<path d="M0 0 C0.99 0 1.98 0 3 0 C6 5.75 6 5.75 6 8 C5.01 8.33 4.02 8.66 3 9 C0 3.375 0 3.375 0 0 Z " fill="#2E2F2F" transform="translate(636,100)"/>
<path d="M0 0 C0.99 0 1.98 0 3 0 C3 1.98 3 3.96 3 6 C1.02 6 -0.96 6 -3 6 C-3 5.01 -3 4.02 -3 3 C-2.01 3 -1.02 3 0 3 C0 2.01 0 1.02 0 0 Z " fill="#D9E0E3" transform="translate(683,137)"/>
<path d="M0 0 C0.99 0 1.98 0 3 0 C3 0.99 3 1.98 3 3 C3.99 3 4.98 3 6 3 C6 3.99 6 4.98 6 6 C4.02 6 2.04 6 0 6 C0 4.02 0 2.04 0 0 Z " fill="#D9E0E3" transform="translate(16,137)"/>
<path d="M0 0 C2.475 0.495 2.475 0.495 5 1 C5 3.64 5 6.28 5 9 C1.9083091 6.47043472 1.09068668 3.77545388 0 0 Z " fill="#171717" transform="translate(640,108)"/>
<path d="M0 0 C1.98 0 3.96 0 6 0 C6 1.98 6 3.96 6 6 C5.01 6 4.02 6 3 6 C3 5.01 3 4.02 3 3 C2.01 3 1.02 3 0 3 C0 2.01 0 1.02 0 0 Z " fill="#D9E0E3" transform="translate(680,21)"/>
<path d="M0 0 C1.98 0 3.96 0 6 0 C6 0.99 6 1.98 6 3 C5.01 3 4.02 3 3 3 C3 3.99 3 4.98 3 6 C2.01 6 1.02 6 0 6 C0 4.02 0 2.04 0 0 Z " fill="#D9E0E3" transform="translate(16,21)"/>
<path d="M0 0 C4.95 0.99 4.95 0.99 10 2 C9.01 2.495 9.01 2.495 8 3 C8 3.66 8 4.32 8 5 C4.62537285 4.45276317 2.91765 3.9451 0 2 C0 1.34 0 0.68 0 0 Z " fill="#2D2D2D" transform="translate(330,113)"/>
<path d="M0 0 C4.93928888 -0.3367697 5.78492722 -0.16130459 10 3 C6.37 3.33 2.74 3.66 -1 4 C-0.67 2.68 -0.34 1.36 0 0 Z " fill="#2B2B2B" transform="translate(25,87)"/>
<path d="M0 0 C2.31 0 4.62 0 7 0 C7 0.99 7 1.98 7 3 C4.69 3.33 2.38 3.66 0 4 C0 2.68 0 1.36 0 0 Z " fill="#DBE0E3" transform="translate(78,21)"/>
<path d="M0 0 C2.31 0.33 4.62 0.66 7 1 C7 1.99 7 2.98 7 4 C5.02 4 3.04 4 1 4 C0.67 2.68 0.34 1.36 0 0 Z " fill="#DAE0E3" transform="translate(78,139)"/>
<path d="M0 0 C0.99 0 1.98 0 3 0 C3.33 1.98 3.66 3.96 4 6 C2.68 6 1.36 6 0 6 C0 4.02 0 2.04 0 0 Z " fill="#D9DFE2" transform="translate(16,92)"/>
<path d="M0 0 C0.66 0.33 1.32 0.66 2 1 C1.01 2.98 0.02 4.96 -1 7 C-1.99 7 -2.98 7 -4 7 C-3.39816251 4.97954558 -2.72693904 2.97888961 -2 1 C-1.34 0.67 -0.68 0.34 0 0 Z " fill="#1A1A1A" transform="translate(290,68)"/>
<path d="M0 0 C1.98 0 3.96 0 6 0 C5.67 1.32 5.34 2.64 5 4 C3.35 3.67 1.7 3.34 0 3 C0 2.01 0 1.02 0 0 Z " fill="#D9E0E3" transform="translate(70,21)"/>
<path d="M0 0 C1.98 0 3.96 0 6 0 C6 0.99 6 1.98 6 3 C4.02 3 2.04 3 0 3 C0 2.01 0 1.02 0 0 Z " fill="#D9E0E3" transform="translate(671,140)"/>
<path d="M0 0 C1.98 0 3.96 0 6 0 C6 0.99 6 1.98 6 3 C4.02 3 2.04 3 0 3 C0 2.01 0 1.02 0 0 Z " fill="#D9E0E3" transform="translate(662,140)"/>
<path d="M0 0 C1.98 0 3.96 0 6 0 C6 0.99 6 1.98 6 3 C4.02 3 2.04 3 0 3 C0 2.01 0 1.02 0 0 Z " fill="#D9E0E3" transform="translate(653,140)"/>
<path d="M0 0 C1.98 0 3.96 0 6 0 C6 0.99 6 1.98 6 3 C4.02 3 2.04 3 0 3 C0 2.01 0 1.02 0 0 Z " fill="#D9E0E3" transform="translate(644,140)"/>
<path d="M0 0 C1.98 0 3.96 0 6 0 C6 0.99 6 1.98 6 3 C4.02 3 2.04 3 0 3 C0 2.01 0 1.02 0 0 Z " fill="#D9E0E3" transform="translate(635,140)"/>
<path d="M0 0 C1.98 0 3.96 0 6 0 C6 0.99 6 1.98 6 3 C4.02 3 2.04 3 0 3 C0 2.01 0 1.02 0 0 Z " fill="#D9E0E3" transform="translate(626,140)"/>
<path d="M0 0 C1.98 0 3.96 0 6 0 C6 0.99 6 1.98 6 3 C4.02 3 2.04 3 0 3 C0 2.01 0 1.02 0 0 Z " fill="#D9E0E3" transform="translate(617,140)"/>
<path d="M0 0 C1.98 0 3.96 0 6 0 C6 0.99 6 1.98 6 3 C4.02 3 2.04 3 0 3 C0 2.01 0 1.02 0 0 Z " fill="#DAE0E3" transform="translate(608,140)"/>
<path d="M0 0 C1.98 0 3.96 0 6 0 C6 0.99 6 1.98 6 3 C4.02 3 2.04 3 0 3 C0 2.01 0 1.02 0 0 Z " fill="#DAE1E4" transform="translate(599,140)"/>
<path d="M0 0 C1.98 0 3.96 0 6 0 C6 0.99 6 1.98 6 3 C4.02 3 2.04 3 0 3 C0 2.01 0 1.02 0 0 Z " fill="#DAE1E4" transform="translate(590,140)"/>
<path d="M0 0 C1.98 0 3.96 0 6 0 C6 0.99 6 1.98 6 3 C4.02 3 2.04 3 0 3 C0 2.01 0 1.02 0 0 Z " fill="#DAE1E4" transform="translate(581,140)"/>
<path d="M0 0 C1.98 0 3.96 0 6 0 C6 0.99 6 1.98 6 3 C4.02 3 2.04 3 0 3 C0 2.01 0 1.02 0 0 Z " fill="#DAE1E4" transform="translate(572,140)"/>
<path d="M0 0 C1.98 0 3.96 0 6 0 C6 0.99 6 1.98 6 3 C4.02 3 2.04 3 0 3 C0 2.01 0 1.02 0 0 Z " fill="#DAE1E4" transform="translate(563,140)"/>
<path d="M0 0 C1.98 0 3.96 0 6 0 C6 0.99 6 1.98 6 3 C4.02 3 2.04 3 0 3 C0 2.01 0 1.02 0 0 Z " fill="#DAE1E4" transform="translate(554,140)"/>
<path d="M0 0 C1.98 0 3.96 0 6 0 C6 0.99 6 1.98 6 3 C4.02 3 2.04 3 0 3 C0 2.01 0 1.02 0 0 Z " fill="#DBE1E4" transform="translate(545,140)"/>
<path d="M0 0 C1.98 0 3.96 0 6 0 C6 0.99 6 1.98 6 3 C4.02 3 2.04 3 0 3 C0 2.01 0 1.02 0 0 Z " fill="#DBE1E4" transform="translate(536,140)"/>
<path d="M0 0 C1.98 0 3.96 0 6 0 C6 0.99 6 1.98 6 3 C4.02 3 2.04 3 0 3 C0 2.01 0 1.02 0 0 Z " fill="#DBE1E4" transform="translate(527,140)"/>
<path d="M0 0 C1.98 0 3.96 0 6 0 C6 0.99 6 1.98 6 3 C4.02 3 2.04 3 0 3 C0 2.01 0 1.02 0 0 Z " fill="#DBE1E4" transform="translate(501,140)"/>
<path d="M0 0 C1.98 0 3.96 0 6 0 C6 0.99 6 1.98 6 3 C4.02 3 2.04 3 0 3 C0 2.01 0 1.02 0 0 Z " fill="#DBE1E4" transform="translate(492,140)"/>
<path d="M0 0 C1.98 0 3.96 0 6 0 C6 0.99 6 1.98 6 3 C4.02 3 2.04 3 0 3 C0 2.01 0 1.02 0 0 Z " fill="#DBE1E4" transform="translate(483,140)"/>
<path d="M0 0 C1.98 0 3.96 0 6 0 C6 0.99 6 1.98 6 3 C4.02 3 2.04 3 0 3 C0 2.01 0 1.02 0 0 Z " fill="#DAE1E4" transform="translate(474,140)"/>
<path d="M0 0 C1.98 0 3.96 0 6 0 C6 0.99 6 1.98 6 3 C4.02 3 2.04 3 0 3 C0 2.01 0 1.02 0 0 Z " fill="#DAE1E4" transform="translate(465,140)"/>
<path d="M0 0 C1.98 0 3.96 0 6 0 C6 0.99 6 1.98 6 3 C4.02 3 2.04 3 0 3 C0 2.01 0 1.02 0 0 Z " fill="#DAE1E4" transform="translate(456,140)"/>
<path d="M0 0 C1.98 0 3.96 0 6 0 C6 0.99 6 1.98 6 3 C4.02 3 2.04 3 0 3 C0 2.01 0 1.02 0 0 Z " fill="#DAE1E4" transform="translate(447,140)"/>
<path d="M0 0 C1.98 0 3.96 0 6 0 C6 0.99 6 1.98 6 3 C4.02 3 2.04 3 0 3 C0 2.01 0 1.02 0 0 Z " fill="#DAE1E4" transform="translate(438,140)"/>
<path d="M0 0 C1.98 0 3.96 0 6 0 C6 0.99 6 1.98 6 3 C4.02 3 2.04 3 0 3 C0 2.01 0 1.02 0 0 Z " fill="#DAE0E4" transform="translate(429,140)"/>
<path d="M0 0 C1.98 0 3.96 0 6 0 C6 0.99 6 1.98 6 3 C4.02 3 2.04 3 0 3 C0 2.01 0 1.02 0 0 Z " fill="#DAE0E3" transform="translate(420,140)"/>
<path d="M0 0 C1.98 0 3.96 0 6 0 C6 0.99 6 1.98 6 3 C4.02 3 2.04 3 0 3 C0 2.01 0 1.02 0 0 Z " fill="#D9E0E3" transform="translate(411,140)"/>
<path d="M0 0 C1.98 0 3.96 0 6 0 C6 0.99 6 1.98 6 3 C4.02 3 2.04 3 0 3 C0 2.01 0 1.02 0 0 Z " fill="#D9E0E3" transform="translate(402,140)"/>
<path d="M0 0 C1.98 0 3.96 0 6 0 C6 0.99 6 1.98 6 3 C4.02 3 2.04 3 0 3 C0 2.01 0 1.02 0 0 Z " fill="#D9E0E3" transform="translate(393,140)"/>
<path d="M0 0 C1.98 0 3.96 0 6 0 C6 0.99 6 1.98 6 3 C4.02 3 2.04 3 0 3 C0 2.01 0 1.02 0 0 Z " fill="#D9E0E3" transform="translate(384,140)"/>
<path d="M0 0 C1.98 0 3.96 0 6 0 C6 0.99 6 1.98 6 3 C4.02 3 2.04 3 0 3 C0 2.01 0 1.02 0 0 Z " fill="#D9E0E3" transform="translate(375,140)"/>
<path d="M0 0 C1.98 0 3.96 0 6 0 C6 0.99 6 1.98 6 3 C4.02 3 2.04 3 0 3 C0 2.01 0 1.02 0 0 Z " fill="#D9E0E3" transform="translate(366,140)"/>
<path d="M0 0 C1.98 0 3.96 0 6 0 C6 0.99 6 1.98 6 3 C4.02 3 2.04 3 0 3 C0 2.01 0 1.02 0 0 Z " fill="#D9E0E3" transform="translate(357,140)"/>
<path d="M0 0 C1.98 0 3.96 0 6 0 C6 0.99 6 1.98 6 3 C4.02 3 2.04 3 0 3 C0 2.01 0 1.02 0 0 Z " fill="#D9E0E3" transform="translate(348,140)"/>
<path d="M0 0 C1.98 0 3.96 0 6 0 C6 0.99 6 1.98 6 3 C4.02 3 2.04 3 0 3 C0 2.01 0 1.02 0 0 Z " fill="#D9E0E3" transform="translate(339,140)"/>
<path d="M0 0 C1.98 0 3.96 0 6 0 C6 0.99 6 1.98 6 3 C4.02 3 2.04 3 0 3 C0 2.01 0 1.02 0 0 Z " fill="#D9E0E3" transform="translate(330,140)"/>
<path d="M0 0 C1.98 0 3.96 0 6 0 C6 0.99 6 1.98 6 3 C4.02 3 2.04 3 0 3 C0 2.01 0 1.02 0 0 Z " fill="#D9E0E3" transform="translate(321,140)"/>
<path d="M0 0 C1.98 0 3.96 0 6 0 C6 0.99 6 1.98 6 3 C4.02 3 2.04 3 0 3 C0 2.01 0 1.02 0 0 Z " fill="#D9E0E3" transform="translate(312,140)"/>
<path d="M0 0 C1.98 0 3.96 0 6 0 C6 0.99 6 1.98 6 3 C4.02 3 2.04 3 0 3 C0 2.01 0 1.02 0 0 Z " fill="#D9E0E3" transform="translate(303,140)"/>
<path d="M0 0 C1.98 0 3.96 0 6 0 C6 0.99 6 1.98 6 3 C4.02 3 2.04 3 0 3 C0 2.01 0 1.02 0 0 Z " fill="#D9E0E3" transform="translate(294,140)"/>
<path d="M0 0 C1.98 0 3.96 0 6 0 C6 0.99 6 1.98 6 3 C4.02 3 2.04 3 0 3 C0 2.01 0 1.02 0 0 Z " fill="#D9E0E3" transform="translate(285,140)"/>
<path d="M0 0 C1.98 0 3.96 0 6 0 C6 0.99 6 1.98 6 3 C4.02 3 2.04 3 0 3 C0 2.01 0 1.02 0 0 Z " fill="#DAE0E3" transform="translate(276,140)"/>
<path d="M0 0 C1.98 0 3.96 0 6 0 C6 0.99 6 1.98 6 3 C4.02 3 2.04 3 0 3 C0 2.01 0 1.02 0 0 Z " fill="#DAE1E4" transform="translate(267,140)"/>
<path d="M0 0 C1.98 0 3.96 0 6 0 C6 0.99 6 1.98 6 3 C4.02 3 2.04 3 0 3 C0 2.01 0 1.02 0 0 Z " fill="#DAE1E4" transform="translate(258,140)"/>
<path d="M0 0 C1.98 0 3.96 0 6 0 C6 0.99 6 1.98 6 3 C4.02 3 2.04 3 0 3 C0 2.01 0 1.02 0 0 Z " fill="#DAE1E4" transform="translate(249,140)"/>
<path d="M0 0 C1.98 0 3.96 0 6 0 C6 0.99 6 1.98 6 3 C4.02 3 2.04 3 0 3 C0 2.01 0 1.02 0 0 Z " fill="#DAE1E4" transform="translate(240,140)"/>
<path d="M0 0 C1.98 0 3.96 0 6 0 C6 0.99 6 1.98 6 3 C4.02 3 2.04 3 0 3 C0 2.01 0 1.02 0 0 Z " fill="#DAE1E4" transform="translate(231,140)"/>
<path d="M0 0 C1.98 0 3.96 0 6 0 C6 0.99 6 1.98 6 3 C4.02 3 2.04 3 0 3 C0 2.01 0 1.02 0 0 Z " fill="#DAE1E4" transform="translate(222,140)"/>
<path d="M0 0 C1.98 0 3.96 0 6 0 C6 0.99 6 1.98 6 3 C4.02 3 2.04 3 0 3 C0 2.01 0 1.02 0 0 Z " fill="#DBE1E4" transform="translate(213,140)"/>
<path d="M0 0 C1.98 0 3.96 0 6 0 C6 0.99 6 1.98 6 3 C4.02 3 2.04 3 0 3 C0 2.01 0 1.02 0 0 Z " fill="#DBE1E4" transform="translate(204,140)"/>
<path d="M0 0 C1.98 0 3.96 0 6 0 C6 0.99 6 1.98 6 3 C4.02 3 2.04 3 0 3 C0 2.01 0 1.02 0 0 Z " fill="#DBE1E4" transform="translate(195,140)"/>
<path d="M0 0 C1.98 0 3.96 0 6 0 C6 0.99 6 1.98 6 3 C4.02 3 2.04 3 0 3 C0 2.01 0 1.02 0 0 Z " fill="#DBE1E4" transform="translate(169,140)"/>
<path d="M0 0 C1.98 0 3.96 0 6 0 C6 0.99 6 1.98 6 3 C4.02 3 2.04 3 0 3 C0 2.01 0 1.02 0 0 Z " fill="#DBE1E4" transform="translate(160,140)"/>
<path d="M0 0 C1.98 0 3.96 0 6 0 C6 0.99 6 1.98 6 3 C4.02 3 2.04 3 0 3 C0 2.01 0 1.02 0 0 Z " fill="#DBE1E4" transform="translate(151,140)"/>
<path d="M0 0 C1.98 0 3.96 0 6 0 C6 0.99 6 1.98 6 3 C4.02 3 2.04 3 0 3 C0 2.01 0 1.02 0 0 Z " fill="#DAE1E4" transform="translate(142,140)"/>
<path d="M0 0 C1.98 0 3.96 0 6 0 C6 0.99 6 1.98 6 3 C4.02 3 2.04 3 0 3 C0 2.01 0 1.02 0 0 Z " fill="#DAE1E4" transform="translate(133,140)"/>
<path d="M0 0 C1.98 0 3.96 0 6 0 C6 0.99 6 1.98 6 3 C4.02 3 2.04 3 0 3 C0 2.01 0 1.02 0 0 Z " fill="#DAE1E4" transform="translate(124,140)"/>
<path d="M0 0 C1.98 0 3.96 0 6 0 C6 0.99 6 1.98 6 3 C4.02 3 2.04 3 0 3 C0 2.01 0 1.02 0 0 Z " fill="#DAE1E4" transform="translate(115,140)"/>
<path d="M0 0 C1.98 0 3.96 0 6 0 C6 0.99 6 1.98 6 3 C4.02 3 2.04 3 0 3 C0 2.01 0 1.02 0 0 Z " fill="#DAE1E4" transform="translate(106,140)"/>
<path d="M0 0 C1.98 0 3.96 0 6 0 C6 0.99 6 1.98 6 3 C4.02 3 2.04 3 0 3 C0 2.01 0 1.02 0 0 Z " fill="#DAE1E4" transform="translate(97,140)"/>
<path d="M0 0 C1.98 0 3.96 0 6 0 C6 0.99 6 1.98 6 3 C4.02 3 2.04 3 0 3 C0 2.01 0 1.02 0 0 Z " fill="#DAE0E3" transform="translate(88,140)"/>
<path d="M0 0 C1.98 0 3.96 0 6 0 C6 0.99 6 1.98 6 3 C4.02 3 2.04 3 0 3 C0 2.01 0 1.02 0 0 Z " fill="#D9E0E3" transform="translate(70,140)"/>
<path d="M0 0 C1.98 0 3.96 0 6 0 C6 0.99 6 1.98 6 3 C4.02 3 2.04 3 0 3 C0 2.01 0 1.02 0 0 Z " fill="#D9E0E3" transform="translate(61,140)"/>
<path d="M0 0 C1.98 0 3.96 0 6 0 C6 0.99 6 1.98 6 3 C4.02 3 2.04 3 0 3 C0 2.01 0 1.02 0 0 Z " fill="#D9E0E3" transform="translate(52,140)"/>
<path d="M0 0 C1.98 0 3.96 0 6 0 C6 0.99 6 1.98 6 3 C4.02 3 2.04 3 0 3 C0 2.01 0 1.02 0 0 Z " fill="#D9E0E3" transform="translate(43,140)"/>
<path d="M0 0 C1.98 0 3.96 0 6 0 C6 0.99 6 1.98 6 3 C4.02 3 2.04 3 0 3 C0 2.01 0 1.02 0 0 Z " fill="#D9E0E3" transform="translate(34,140)"/>
<path d="M0 0 C1.98 0 3.96 0 6 0 C6 0.99 6 1.98 6 3 C4.02 3 2.04 3 0 3 C0 2.01 0 1.02 0 0 Z " fill="#D9E0E3" transform="translate(25,140)"/>
<path d="M0 0 C0.99 0 1.98 0 3 0 C3 1.98 3 3.96 3 6 C2.01 6 1.02 6 0 6 C0 4.02 0 2.04 0 0 Z " fill="#D9E0E3" transform="translate(683,128)"/>
<path d="M0 0 C0.99 0 1.98 0 3 0 C3 1.98 3 3.96 3 6 C2.01 6 1.02 6 0 6 C0 4.02 0 2.04 0 0 Z " fill="#D9E0E3" transform="translate(16,128)"/>
<path d="M0 0 C0.99 0 1.98 0 3 0 C3 1.98 3 3.96 3 6 C2.01 6 1.02 6 0 6 C0 4.02 0 2.04 0 0 Z " fill="#D9E0E3" transform="translate(683,119)"/>
<path d="M0 0 C0.99 0 1.98 0 3 0 C3 1.98 3 3.96 3 6 C2.01 6 1.02 6 0 6 C0 4.02 0 2.04 0 0 Z " fill="#D9E0E3" transform="translate(16,119)"/>
<path d="M0 0 C0.99 0 1.98 0 3 0 C3 1.98 3 3.96 3 6 C2.01 6 1.02 6 0 6 C0 4.02 0 2.04 0 0 Z " fill="#DAE0E4" transform="translate(683,110)"/>
<path d="M0 0 C0.99 0 1.98 0 3 0 C3 1.98 3 3.96 3 6 C2.01 6 1.02 6 0 6 C0 4.02 0 2.04 0 0 Z " fill="#DAE0E3" transform="translate(16,110)"/>
<path d="M0 0 C0.99 0 1.98 0 3 0 C3 1.98 3 3.96 3 6 C2.01 6 1.02 6 0 6 C0 4.02 0 2.04 0 0 Z " fill="#DAE1E4" transform="translate(683,101)"/>
<path d="M0 0 C0.99 0 1.98 0 3 0 C3 1.98 3 3.96 3 6 C2.01 6 1.02 6 0 6 C0 4.02 0 2.04 0 0 Z " fill="#DAE1E4" transform="translate(16,101)"/>
<path d="M0 0 C0.99 0 1.98 0 3 0 C3 1.98 3 3.96 3 6 C2.01 6 1.02 6 0 6 C0 4.02 0 2.04 0 0 Z " fill="#DBE1E4" transform="translate(683,92)"/>
<path d="M0 0 C0.99 0 1.98 0 3 0 C3 1.98 3 3.96 3 6 C2.01 6 1.02 6 0 6 C0 4.02 0 2.04 0 0 Z " fill="#DBE2E4" transform="translate(683,83)"/>
<path d="M0 0 C0.99 0 1.98 0 3 0 C3 1.98 3 3.96 3 6 C2.01 6 1.02 6 0 6 C0 4.02 0 2.04 0 0 Z " fill="#DBE1E4" transform="translate(16,83)"/>
<path d="M0 0 C0.99 0 1.98 0 3 0 C3 1.98 3 3.96 3 6 C2.01 6 1.02 6 0 6 C0 4.02 0 2.04 0 0 Z " fill="#DBE2E4" transform="translate(683,75)"/>
<path d="M0 0 C0.99 0 1.98 0 3 0 C3 1.98 3 3.96 3 6 C2.01 6 1.02 6 0 6 C0 4.02 0 2.04 0 0 Z " fill="#DBE2E4" transform="translate(16,75)"/>
<path d="M0 0 C0.99 0 1.98 0 3 0 C3 1.98 3 3.96 3 6 C2.01 6 1.02 6 0 6 C0 4.02 0 2.04 0 0 Z " fill="#DBE1E4" transform="translate(683,66)"/>
<path d="M0 0 C0.99 0 1.98 0 3 0 C3 1.98 3 3.96 3 6 C2.01 6 1.02 6 0 6 C0 4.02 0 2.04 0 0 Z " fill="#DBE1E4" transform="translate(16,66)"/>
<path d="M0 0 C0.33 0.99 0.66 1.98 1 3 C-0.3125 5.1875 -0.3125 5.1875 -2 7 C-2.66 7 -3.32 7 -4 7 C-3.39816251 4.97954558 -2.72693904 2.97888961 -2 1 C-1.34 0.67 -0.68 0.34 0 0 Z " fill="#1B1B1B" transform="translate(204,60)"/>
<path d="M0 0 C0.99 0 1.98 0 3 0 C3 1.98 3 3.96 3 6 C2.01 6 1.02 6 0 6 C0 4.02 0 2.04 0 0 Z " fill="#DAE1E4" transform="translate(683,57)"/>
<path d="M0 0 C0.99 0 1.98 0 3 0 C3 1.98 3 3.96 3 6 C2.01 6 1.02 6 0 6 C0 4.02 0 2.04 0 0 Z " fill="#DAE1E4" transform="translate(16,57)"/>
<path d="M0 0 C0.33 0.99 0.66 1.98 1 3 C-0.3125 5.1875 -0.3125 5.1875 -2 7 C-2.66 7 -3.32 7 -4 7 C-3.39816251 4.97954558 -2.72693904 2.97888961 -2 1 C-1.34 0.67 -0.68 0.34 0 0 Z " fill="#1B1B1B" transform="translate(298,53)"/>
<path d="M0 0 C0.99 0 1.98 0 3 0 C3 1.98 3 3.96 3 6 C2.01 6 1.02 6 0 6 C0 4.02 0 2.04 0 0 Z " fill="#DAE0E4" transform="translate(683,48)"/>
<path d="M0 0 C0.99 0 1.98 0 3 0 C3 1.98 3 3.96 3 6 C2.01 6 1.02 6 0 6 C0 4.02 0 2.04 0 0 Z " fill="#DAE0E4" transform="translate(16,48)"/>
<path d="M0 0 C0.99 0 1.98 0 3 0 C3 1.98 3 3.96 3 6 C2.01 6 1.02 6 0 6 C0 4.02 0 2.04 0 0 Z " fill="#D9E0E3" transform="translate(683,39)"/>
<path d="M0 0 C0.99 0 1.98 0 3 0 C3 1.98 3 3.96 3 6 C2.01 6 1.02 6 0 6 C0 4.02 0 2.04 0 0 Z " fill="#D9E0E3" transform="translate(16,39)"/>
<path d="M0 0 C0.99 0 1.98 0 3 0 C3 1.98 3 3.96 3 6 C2.01 6 1.02 6 0 6 C0 4.02 0 2.04 0 0 Z " fill="#D9E0E3" transform="translate(683,30)"/>
<path d="M0 0 C0.99 0 1.98 0 3 0 C3 1.98 3 3.96 3 6 C2.01 6 1.02 6 0 6 C0 4.02 0 2.04 0 0 Z " fill="#D9E0E3" transform="translate(16,30)"/>
<path d="M0 0 C1.98 0 3.96 0 6 0 C6 0.99 6 1.98 6 3 C4.02 3 2.04 3 0 3 C0 2.01 0 1.02 0 0 Z " fill="#D9E0E3" transform="translate(671,21)"/>
<path d="M0 0 C1.98 0 3.96 0 6 0 C6 0.99 6 1.98 6 3 C4.02 3 2.04 3 0 3 C0 2.01 0 1.02 0 0 Z " fill="#D9E0E3" transform="translate(662,21)"/>
<path d="M0 0 C1.98 0 3.96 0 6 0 C6 0.99 6 1.98 6 3 C4.02 3 2.04 3 0 3 C0 2.01 0 1.02 0 0 Z " fill="#D9E0E3" transform="translate(653,21)"/>
<path d="M0 0 C1.98 0 3.96 0 6 0 C6 0.99 6 1.98 6 3 C4.02 3 2.04 3 0 3 C0 2.01 0 1.02 0 0 Z " fill="#D9E0E3" transform="translate(644,21)"/>
<path d="M0 0 C1.98 0 3.96 0 6 0 C6 0.99 6 1.98 6 3 C4.02 3 2.04 3 0 3 C0 2.01 0 1.02 0 0 Z " fill="#D9E0E3" transform="translate(635,21)"/>
<path d="M0 0 C1.98 0 3.96 0 6 0 C6 0.99 6 1.98 6 3 C4.02 3 2.04 3 0 3 C0 2.01 0 1.02 0 0 Z " fill="#D9E0E3" transform="translate(626,21)"/>
<path d="M0 0 C1.98 0 3.96 0 6 0 C6 0.99 6 1.98 6 3 C4.02 3 2.04 3 0 3 C0 2.01 0 1.02 0 0 Z " fill="#D9E0E3" transform="translate(617,21)"/>
<path d="M0 0 C1.98 0 3.96 0 6 0 C6 0.99 6 1.98 6 3 C4.02 3 2.04 3 0 3 C0 2.01 0 1.02 0 0 Z " fill="#DAE0E3" transform="translate(608,21)"/>
<path d="M0 0 C1.98 0 3.96 0 6 0 C6 0.99 6 1.98 6 3 C4.02 3 2.04 3 0 3 C0 2.01 0 1.02 0 0 Z " fill="#DAE1E4" transform="translate(599,21)"/>
<path d="M0 0 C1.98 0 3.96 0 6 0 C6 0.99 6 1.98 6 3 C4.02 3 2.04 3 0 3 C0 2.01 0 1.02 0 0 Z " fill="#DAE1E4" transform="translate(590,21)"/>
<path d="M0 0 C1.98 0 3.96 0 6 0 C6 0.99 6 1.98 6 3 C4.02 3 2.04 3 0 3 C0 2.01 0 1.02 0 0 Z " fill="#DAE1E4" transform="translate(581,21)"/>
<path d="M0 0 C1.98 0 3.96 0 6 0 C6 0.99 6 1.98 6 3 C4.02 3 2.04 3 0 3 C0 2.01 0 1.02 0 0 Z " fill="#DAE1E4" transform="translate(572,21)"/>
<path d="M0 0 C1.98 0 3.96 0 6 0 C6 0.99 6 1.98 6 3 C4.02 3 2.04 3 0 3 C0 2.01 0 1.02 0 0 Z " fill="#DAE1E4" transform="translate(563,21)"/>
<path d="M0 0 C1.98 0 3.96 0 6 0 C6 0.99 6 1.98 6 3 C4.02 3 2.04 3 0 3 C0 2.01 0 1.02 0 0 Z " fill="#DAE1E4" transform="translate(554,21)"/>
<path d="M0 0 C1.98 0 3.96 0 6 0 C6 0.99 6 1.98 6 3 C4.02 3 2.04 3 0 3 C0 2.01 0 1.02 0 0 Z " fill="#DBE1E4" transform="translate(545,21)"/>
<path d="M0 0 C1.98 0 3.96 0 6 0 C6 0.99 6 1.98 6 3 C4.02 3 2.04 3 0 3 C0 2.01 0 1.02 0 0 Z " fill="#DBE1E4" transform="translate(536,21)"/>
<path d="M0 0 C1.98 0 3.96 0 6 0 C6 0.99 6 1.98 6 3 C4.02 3 2.04 3 0 3 C0 2.01 0 1.02 0 0 Z " fill="#DBE1E4" transform="translate(527,21)"/>
<path d="M0 0 C1.98 0 3.96 0 6 0 C6 0.99 6 1.98 6 3 C4.02 3 2.04 3 0 3 C0 2.01 0 1.02 0 0 Z " fill="#DBE1E4" transform="translate(501,21)"/>
<path d="M0 0 C1.98 0 3.96 0 6 0 C6 0.99 6 1.98 6 3 C4.02 3 2.04 3 0 3 C0 2.01 0 1.02 0 0 Z " fill="#DBE1E4" transform="translate(492,21)"/>
<path d="M0 0 C1.98 0 3.96 0 6 0 C6 0.99 6 1.98 6 3 C4.02 3 2.04 3 0 3 C0 2.01 0 1.02 0 0 Z " fill="#DBE1E4" transform="translate(483,21)"/>
<path d="M0 0 C1.98 0 3.96 0 6 0 C6 0.99 6 1.98 6 3 C4.02 3 2.04 3 0 3 C0 2.01 0 1.02 0 0 Z " fill="#DAE1E4" transform="translate(474,21)"/>
<path d="M0 0 C1.98 0 3.96 0 6 0 C6 0.99 6 1.98 6 3 C4.02 3 2.04 3 0 3 C0 2.01 0 1.02 0 0 Z " fill="#DAE1E4" transform="translate(465,21)"/>
<path d="M0 0 C1.98 0 3.96 0 6 0 C6 0.99 6 1.98 6 3 C4.02 3 2.04 3 0 3 C0 2.01 0 1.02 0 0 Z " fill="#DAE1E4" transform="translate(456,21)"/>
<path d="M0 0 C1.98 0 3.96 0 6 0 C6 0.99 6 1.98 6 3 C4.02 3 2.04 3 0 3 C0 2.01 0 1.02 0 0 Z " fill="#DAE1E4" transform="translate(447,21)"/>
<path d="M0 0 C1.98 0 3.96 0 6 0 C6 0.99 6 1.98 6 3 C4.02 3 2.04 3 0 3 C0 2.01 0 1.02 0 0 Z " fill="#DAE1E4" transform="translate(438,21)"/>
<path d="M0 0 C1.98 0 3.96 0 6 0 C6 0.99 6 1.98 6 3 C4.02 3 2.04 3 0 3 C0 2.01 0 1.02 0 0 Z " fill="#DAE0E4" transform="translate(429,21)"/>
<path d="M0 0 C1.98 0 3.96 0 6 0 C6 0.99 6 1.98 6 3 C4.02 3 2.04 3 0 3 C0 2.01 0 1.02 0 0 Z " fill="#DAE0E3" transform="translate(420,21)"/>
<path d="M0 0 C1.98 0 3.96 0 6 0 C6 0.99 6 1.98 6 3 C4.02 3 2.04 3 0 3 C0 2.01 0 1.02 0 0 Z " fill="#D9E0E3" transform="translate(411,21)"/>
<path d="M0 0 C1.98 0 3.96 0 6 0 C6 0.99 6 1.98 6 3 C4.02 3 2.04 3 0 3 C0 2.01 0 1.02 0 0 Z " fill="#D9E0E3" transform="translate(402,21)"/>
<path d="M0 0 C1.98 0 3.96 0 6 0 C6 0.99 6 1.98 6 3 C4.02 3 2.04 3 0 3 C0 2.01 0 1.02 0 0 Z " fill="#D9E0E3" transform="translate(393,21)"/>
<path d="M0 0 C1.98 0 3.96 0 6 0 C6 0.99 6 1.98 6 3 C4.02 3 2.04 3 0 3 C0 2.01 0 1.02 0 0 Z " fill="#D9E0E3" transform="translate(384,21)"/>
<path d="M0 0 C1.98 0 3.96 0 6 0 C6 0.99 6 1.98 6 3 C4.02 3 2.04 3 0 3 C0 2.01 0 1.02 0 0 Z " fill="#D9E0E3" transform="translate(375,21)"/>
<path d="M0 0 C1.98 0 3.96 0 6 0 C6 0.99 6 1.98 6 3 C4.02 3 2.04 3 0 3 C0 2.01 0 1.02 0 0 Z " fill="#D9E0E3" transform="translate(366,21)"/>
<path d="M0 0 C1.98 0 3.96 0 6 0 C6 0.99 6 1.98 6 3 C4.02 3 2.04 3 0 3 C0 2.01 0 1.02 0 0 Z " fill="#D9E0E3" transform="translate(357,21)"/>
<path d="M0 0 C1.98 0 3.96 0 6 0 C6 0.99 6 1.98 6 3 C4.02 3 2.04 3 0 3 C0 2.01 0 1.02 0 0 Z " fill="#D9E0E3" transform="translate(348,21)"/>
<path d="M0 0 C1.98 0 3.96 0 6 0 C6 0.99 6 1.98 6 3 C4.02 3 2.04 3 0 3 C0 2.01 0 1.02 0 0 Z " fill="#D9E0E3" transform="translate(339,21)"/>
<path d="M0 0 C1.98 0 3.96 0 6 0 C6 0.99 6 1.98 6 3 C4.02 3 2.04 3 0 3 C0 2.01 0 1.02 0 0 Z " fill="#D9E0E3" transform="translate(330,21)"/>
<path d="M0 0 C1.98 0 3.96 0 6 0 C6 0.99 6 1.98 6 3 C4.02 3 2.04 3 0 3 C0 2.01 0 1.02 0 0 Z " fill="#D9E0E3" transform="translate(321,21)"/>
<path d="M0 0 C1.98 0 3.96 0 6 0 C6 0.99 6 1.98 6 3 C4.02 3 2.04 3 0 3 C0 2.01 0 1.02 0 0 Z " fill="#D9E0E3" transform="translate(312,21)"/>
<path d="M0 0 C1.98 0 3.96 0 6 0 C6 0.99 6 1.98 6 3 C4.02 3 2.04 3 0 3 C0 2.01 0 1.02 0 0 Z " fill="#D9E0E3" transform="translate(303,21)"/>
<path d="M0 0 C1.98 0 3.96 0 6 0 C6 0.99 6 1.98 6 3 C4.02 3 2.04 3 0 3 C0 2.01 0 1.02 0 0 Z " fill="#D9E0E3" transform="translate(294,21)"/>
<path d="M0 0 C1.98 0 3.96 0 6 0 C6 0.99 6 1.98 6 3 C4.02 3 2.04 3 0 3 C0 2.01 0 1.02 0 0 Z " fill="#D9E0E3" transform="translate(285,21)"/>
<path d="M0 0 C1.98 0 3.96 0 6 0 C6 0.99 6 1.98 6 3 C4.02 3 2.04 3 0 3 C0 2.01 0 1.02 0 0 Z " fill="#DAE0E3" transform="translate(276,21)"/>
<path d="M0 0 C1.98 0 3.96 0 6 0 C6 0.99 6 1.98 6 3 C4.02 3 2.04 3 0 3 C0 2.01 0 1.02 0 0 Z " fill="#DAE1E4" transform="translate(267,21)"/>
<path d="M0 0 C1.98 0 3.96 0 6 0 C6 0.99 6 1.98 6 3 C4.02 3 2.04 3 0 3 C0 2.01 0 1.02 0 0 Z " fill="#DAE1E4" transform="translate(258,21)"/>
<path d="M0 0 C1.98 0 3.96 0 6 0 C6 0.99 6 1.98 6 3 C4.02 3 2.04 3 0 3 C0 2.01 0 1.02 0 0 Z " fill="#DAE1E4" transform="translate(249,21)"/>
<path d="M0 0 C1.98 0 3.96 0 6 0 C6 0.99 6 1.98 6 3 C4.02 3 2.04 3 0 3 C0 2.01 0 1.02 0 0 Z " fill="#DAE1E4" transform="translate(240,21)"/>
<path d="M0 0 C1.98 0 3.96 0 6 0 C6 0.99 6 1.98 6 3 C4.02 3 2.04 3 0 3 C0 2.01 0 1.02 0 0 Z " fill="#DAE1E4" transform="translate(231,21)"/>
<path d="M0 0 C1.98 0 3.96 0 6 0 C6 0.99 6 1.98 6 3 C4.02 3 2.04 3 0 3 C0 2.01 0 1.02 0 0 Z " fill="#DAE1E4" transform="translate(222,21)"/>
<path d="M0 0 C1.98 0 3.96 0 6 0 C6 0.99 6 1.98 6 3 C4.02 3 2.04 3 0 3 C0 2.01 0 1.02 0 0 Z " fill="#DBE1E4" transform="translate(213,21)"/>
<path d="M0 0 C1.98 0 3.96 0 6 0 C6 0.99 6 1.98 6 3 C4.02 3 2.04 3 0 3 C0 2.01 0 1.02 0 0 Z " fill="#DBE1E4" transform="translate(204,21)"/>
<path d="M0 0 C1.98 0 3.96 0 6 0 C6 0.99 6 1.98 6 3 C4.02 3 2.04 3 0 3 C0 2.01 0 1.02 0 0 Z " fill="#DBE1E4" transform="translate(195,21)"/>
<path d="M0 0 C1.98 0 3.96 0 6 0 C6 0.99 6 1.98 6 3 C4.02 3 2.04 3 0 3 C0 2.01 0 1.02 0 0 Z " fill="#DBE1E4" transform="translate(169,21)"/>
<path d="M0 0 C1.98 0 3.96 0 6 0 C6 0.99 6 1.98 6 3 C4.02 3 2.04 3 0 3 C0 2.01 0 1.02 0 0 Z " fill="#DBE1E4" transform="translate(160,21)"/>
<path d="M0 0 C1.98 0 3.96 0 6 0 C6 0.99 6 1.98 6 3 C4.02 3 2.04 3 0 3 C0 2.01 0 1.02 0 0 Z " fill="#DBE1E4" transform="translate(151,21)"/>
<path d="M0 0 C1.98 0 3.96 0 6 0 C6 0.99 6 1.98 6 3 C4.02 3 2.04 3 0 3 C0 2.01 0 1.02 0 0 Z " fill="#DAE1E4" transform="translate(142,21)"/>
<path d="M0 0 C1.98 0 3.96 0 6 0 C6 0.99 6 1.98 6 3 C4.02 3 2.04 3 0 3 C0 2.01 0 1.02 0 0 Z " fill="#DAE1E4" transform="translate(133,21)"/>
<path d="M0 0 C1.98 0 3.96 0 6 0 C6 0.99 6 1.98 6 3 C4.02 3 2.04 3 0 3 C0 2.01 0 1.02 0 0 Z " fill="#DAE1E4" transform="translate(124,21)"/>
<path d="M0 0 C1.98 0 3.96 0 6 0 C6 0.99 6 1.98 6 3 C4.02 3 2.04 3 0 3 C0 2.01 0 1.02 0 0 Z " fill="#DAE1E4" transform="translate(115,21)"/>
<path d="M0 0 C1.98 0 3.96 0 6 0 C6 0.99 6 1.98 6 3 C4.02 3 2.04 3 0 3 C0 2.01 0 1.02 0 0 Z " fill="#DAE1E4" transform="translate(106,21)"/>
<path d="M0 0 C1.98 0 3.96 0 6 0 C6 0.99 6 1.98 6 3 C4.02 3 2.04 3 0 3 C0 2.01 0 1.02 0 0 Z " fill="#DAE1E4" transform="translate(97,21)"/>
<path d="M0 0 C1.98 0 3.96 0 6 0 C6 0.99 6 1.98 6 3 C4.02 3 2.04 3 0 3 C0 2.01 0 1.02 0 0 Z " fill="#DAE0E3" transform="translate(88,21)"/>
<path d="M0 0 C1.98 0 3.96 0 6 0 C6 0.99 6 1.98 6 3 C4.02 3 2.04 3 0 3 C0 2.01 0 1.02 0 0 Z " fill="#D9E0E3" transform="translate(61,21)"/>
<path d="M0 0 C1.98 0 3.96 0 6 0 C6 0.99 6 1.98 6 3 C4.02 3 2.04 3 0 3 C0 2.01 0 1.02 0 0 Z " fill="#D9E0E3" transform="translate(52,21)"/>
<path d="M0 0 C1.98 0 3.96 0 6 0 C6 0.99 6 1.98 6 3 C4.02 3 2.04 3 0 3 C0 2.01 0 1.02 0 0 Z " fill="#D9E0E3" transform="translate(43,21)"/>
<path d="M0 0 C1.98 0 3.96 0 6 0 C6 0.99 6 1.98 6 3 C4.02 3 2.04 3 0 3 C0 2.01 0 1.02 0 0 Z " fill="#D9E0E3" transform="translate(34,21)"/>
<path d="M0 0 C1.98 0 3.96 0 6 0 C6 0.99 6 1.98 6 3 C4.02 3 2.04 3 0 3 C0 2.01 0 1.02 0 0 Z " fill="#D9E0E3" transform="translate(25,21)"/>
<path d="M0 0 C0.99 0 1.98 0 3 0 C1.9024777 2.99324263 1.32317108 3.84610901 -1.625 5.25 C-2.40875 5.4975 -3.1925 5.745 -4 6 C-2.84826645 3.53199953 -1.95216435 1.95216435 0 0 Z " fill="#262626" transform="translate(85,51)"/>
</svg>
